<svg width="440" height="40" viewBox="0 0 440 40" fill="none" xmlns="http://www.w3.org/2000/svg">
    <rect width="440" height="40" rx="8" fill="#F5F5F5"/>
    <g clip-path="url(#clip0_9195_48982)">
        <path d="M12 14H16.1273C16.5026 14 17.6282 13.875 18.1285 15.625C18.5037 16.75 19.004 18.5 19.7544 21.125H20.0045C20.755 18.375 21.3803 16.5 21.6305 15.625C22.1308 13.875 23.3815 14 23.8818 14H27.759V26H23.7567V18.875H23.5065L21.3803 26H18.3786L16.2524 18.875H15.8772V26H12M29.3849 14H33.3872V21.125H33.7624L36.3889 15.25C36.8891 14.125 38.0148 14 38.0148 14H41.7669V26H37.7646V18.875H37.5145L34.888 24.75C34.3877 25.875 33.137 26 33.137 26H29.3849M47.145 22.375V26H43.3928V19.75H55.6498C55.1495 21.25 53.3985 22.375 51.3974 22.375" fill="#0F754E"/>
        <path d="M55.8998 19C56.4001 16.75 54.8993 14 51.6474 14H43.1426C43.3927 16.625 45.644 19 48.0204 19" fill="url(#paint0_linear_9195_48982)"/>
    </g>
    <circle cx="83.7795" cy="20" r="8" fill="#E7001B"/>
    <circle cx="94.4463" cy="20" r="8" fill="#F59D1A"/>
    <path fill-rule="evenodd" clip-rule="evenodd" d="M89.1129 25.9628C90.7496 24.498 91.7795 22.3692 91.7795 19.9999C91.7795 17.6306 90.7496 15.5018 89.1129 14.037C87.4763 15.5018 86.4463 17.6306 86.4463 19.9999C86.4463 22.3692 87.4763 24.498 89.1129 25.9628Z" fill="#FC5F01"/>
    <g clip-path="url(#clip1_9195_48982)">
        <path d="M146.254 14C143.636 14 141.295 15.3642 141.295 17.8814C141.295 20.7692 145.445 20.9694 145.445 22.4189C145.445 23.0306 144.747 23.5755 143.558 23.5755C141.867 23.5755 140.604 22.8119 140.604 22.8119L140.061 25.355C140.061 25.355 141.516 26 143.447 26C146.309 26 148.565 24.569 148.565 22.0074C148.565 18.9564 144.396 18.7637 144.396 17.4143C144.396 16.9361 144.969 16.4096 146.158 16.4096C147.498 16.4096 148.591 16.9657 148.591 16.9657L149.119 14.5116C149.119 14.5153 147.93 14 146.254 14ZM122.289 14.1854L122.226 14.5561C122.226 14.5561 123.326 14.76 124.32 15.164C125.597 15.6274 125.69 15.8981 125.904 16.7322L128.249 25.8072H131.391L136.236 14.1854H133.101L129.988 22.089L128.718 15.3902C128.603 14.6228 128.012 14.1854 127.289 14.1854H122.289ZM137.499 14.1854L135.039 25.8072H138.03L140.482 14.1854H137.499ZM154.178 14.1854C153.458 14.1854 153.074 14.5746 152.793 15.2493L148.414 25.8072H151.549L152.154 24.0463H155.976L156.346 25.8072H159.115L156.7 14.1854H154.178ZM154.588 17.3253L155.518 21.6886H153.026L154.588 17.3253Z" fill="#1434CB"/>
    </g>
    <g clip-path="url(#clip2_9195_48982)">
        <path d="M228.395 16.2127V24.0797H225.599V18.5755H222.909V24.1065H220.14V16.2127H228.395Z" fill="black"/>
        <path fill-rule="evenodd" clip-rule="evenodd" d="M214.389 24.375C216.892 24.375 218.729 22.8177 218.729 20.4818C218.729 18.2264 217.371 16.7497 215.081 16.7497C214.016 16.7497 213.164 17.1256 212.498 17.77C212.658 16.4275 213.776 15.4609 215.001 15.4609C215.294 15.4609 217.424 15.4609 217.424 15.4609L218.676 13.125C218.676 13.125 215.986 13.1787 214.735 13.1787C211.886 13.2324 209.942 15.8368 209.942 19.0319C209.942 22.7372 211.806 24.375 214.389 24.375ZM214.415 18.8171C215.347 18.8171 215.986 19.4347 215.986 20.4818C215.986 21.4215 215.427 22.2002 214.415 22.2002C213.457 22.2002 212.818 21.4752 212.818 20.4818C212.818 19.4615 213.457 18.8171 214.415 18.8171Z" fill="black"/>
        <path d="M207.652 21.4484C207.652 21.4484 206.986 21.8243 206.001 21.9048C204.883 21.9317 203.871 21.2067 203.871 19.9448C203.871 18.6829 204.75 17.9848 205.974 17.9848C206.72 17.9848 207.705 18.4949 207.705 18.4949C207.705 18.4949 208.424 17.1525 208.797 16.4812C208.105 15.9442 207.199 15.6757 206.134 15.6757C203.471 15.6757 201.395 17.4478 201.395 19.9448C201.395 22.4418 203.338 24.1871 206.161 24.1334C206.96 24.1065 208.025 23.838 208.69 23.4084L207.652 21.4484Z" fill="black"/>
    </g>
    <g clip-path="url(#clip3_9195_48982)">
        <path d="M178.895 14.35L181.311 18.6833V21.3166L178.895 25.65V14.35Z" fill="#5B57A2"/>
        <path d="M188.195 17.1L190.461 15.7167H195.111L188.195 19.95V17.1Z" fill="#D90751"/>
        <path d="M188.178 14.3333L188.195 20.0667L185.761 18.5667V10L188.178 14.3333Z" fill="#FAB718"/>
        <path d="M195.111 15.7167H190.461L188.178 14.3333L185.761 10L195.111 15.7167Z" fill="#ED6F26"/>
        <path d="M188.195 25.6667V22.8834L185.761 21.4167V30L188.195 25.6667Z" fill="#63B22F"/>
        <path d="M190.461 24.2833L181.311 18.6833L178.895 14.35L195.095 24.2833H190.461Z" fill="#1487C9"/>
        <path d="M185.761 30L188.195 25.6667L190.461 24.2833H195.095L185.761 30Z" fill="#017F36"/>
        <path d="M178.895 25.65L185.778 21.4333L183.478 20L181.328 21.3167L178.895 25.65Z" fill="#984995"/>
    </g>
    <path d="M276.406 13.82V25.8667H274.311V15.4493H270.573V25.8667H268.478V13.82H276.406Z" fill="black"/>
    <path d="M279.913 26.04C278.989 26.04 278.28 25.8609 277.784 25.5027V23.8213C278.049 24.0062 278.337 24.1507 278.649 24.2547C278.972 24.3587 279.353 24.4107 279.791 24.4107C280.449 24.4107 280.945 24.22 281.28 23.8387C281.615 23.4458 281.822 22.9085 281.903 22.2267H278.874V20.5973H281.886C281.69 19.2685 281.009 18.604 279.843 18.604C279.486 18.604 279.128 18.6618 278.77 18.7773C278.424 18.8929 278.147 19.0142 277.939 19.1413V17.3907C278.159 17.2751 278.453 17.1769 278.822 17.096C279.191 17.0151 279.636 16.9747 280.155 16.9747C280.801 16.9747 281.366 17.0902 281.851 17.3213C282.347 17.5409 282.757 17.8529 283.08 18.2573C283.415 18.6502 283.663 19.1298 283.824 19.696C283.997 20.2507 284.084 20.8573 284.084 21.516C284.084 22.9836 283.738 24.1045 283.045 24.8787C282.365 25.6529 281.32 26.04 279.913 26.04Z" fill="black"/>
    <path d="M288.979 16.004C288.148 16.004 287.519 15.796 287.093 15.38C286.677 14.964 286.469 14.444 286.469 13.82H288.2C288.2 14.1205 288.27 14.34 288.408 14.4787C288.558 14.6173 288.748 14.6867 288.979 14.6867C289.198 14.6867 289.371 14.6173 289.498 14.4787C289.625 14.3285 289.689 14.1089 289.689 13.82H291.42C291.42 14.1205 291.368 14.4036 291.264 14.6693C291.16 14.9351 291.004 15.1662 290.797 15.3627C290.6 15.5591 290.347 15.7151 290.035 15.8307C289.735 15.9462 289.383 16.004 288.979 16.004ZM287.456 17.148V22.556L290.606 17.148H292.441V25.8667H290.45V20.476L287.3 25.8667H285.466V17.148H287.456Z" fill="black"/>
    <rect x="248.174" y="12" width="16" height="16" rx="8" fill="#FC3F1D"/>
    <path d="M257.302 24.808H258.973V15.208H256.542C254.097 15.208 252.812 16.465 252.812 18.3159C252.812 19.7939 253.517 20.6641 254.774 21.562L252.591 24.808H254.401L256.832 21.1752L255.989 20.6089C254.967 19.9182 254.47 19.3795 254.47 18.2192C254.47 17.1971 255.188 16.5064 256.556 16.5064H257.302V24.808Z" fill="white"/>
    <g clip-path="url(#clip4_9195_48982)">
        <path d="M321.715 25.6981C321.715 21.8742 321.715 18.088 321.715 14.3019C318.538 14.3019 315.373 14.3019 312.22 14.3019C312.22 18.1132 312.22 21.8994 312.22 25.6981C312.737 25.6981 313.242 25.6981 313.784 25.6981C313.784 22.3522 313.784 19.0314 313.784 15.6981C315.928 15.6981 318.046 15.6981 320.19 15.6981C320.19 19.044 320.19 22.3648 320.19 25.6981C320.707 25.6981 321.198 25.6981 321.715 25.6981Z" fill="#EE3124"/>
        <path d="M361.259 20.566C361.271 20.3774 361.284 20.1887 361.284 20C361.284 19.6981 361.259 19.4088 361.221 19.1195C360.792 16.2264 358.295 14 355.269 14C351.953 14 349.254 16.6918 349.254 20C349.254 23.3082 351.953 26 355.269 26C357.892 26 360.111 24.327 360.943 22H359.304C358.573 23.4843 357.034 24.4906 355.269 24.4906C352.974 24.4906 351.07 22.7799 350.793 20.5535L361.259 20.566ZM355.269 15.5094C357.451 15.5094 359.279 17.0692 359.695 19.1321H350.856C351.259 17.0566 353.075 15.5094 355.269 15.5094Z" fill="#EE3124"/>
        <path d="M347.867 24.2767L343.757 15.0692C343.555 14.6038 343.088 14.3019 342.571 14.3019C342.054 14.3019 341.588 14.6038 341.386 15.0692L337.275 24.2767H335.876V25.6981H349.28V24.2767H347.867ZM342.571 16.0126L346.178 24.2767H338.965L342.571 16.0126Z" fill="#EE3124"/>
        <path d="M372.759 25.6981L368.27 15.0817C368.068 14.6163 367.614 14.3145 367.097 14.3145C366.592 14.3145 366.126 14.6163 365.924 15.0817L361.423 25.6981H363.112L367.084 16.1006L371.069 25.6981H372.759Z" fill="#EE3124"/>
        <path d="M382.682 14.3019H382.657L375.848 23.5346V14.3019H374.309V25.6101V25.6981H375.848L382.682 16.4402V25.6981H384.22V14.3648V14.3019H382.682Z" fill="#EE3124"/>
        <path d="M329.798 14C326.469 14 323.783 16.6918 323.783 20C323.783 23.3082 326.482 26 329.798 26C333.127 26 335.813 23.3082 335.813 20C335.813 16.6918 333.114 14 329.798 14ZM329.798 24.5031C327.314 24.5031 325.284 22.4906 325.284 20C325.284 17.5094 327.301 15.4969 329.798 15.4969C332.295 15.4969 334.312 17.5094 334.312 20C334.312 22.4906 332.282 24.5031 329.798 24.5031Z" fill="#EE3124"/>
        <path d="M329.798 14.805C329.798 15.1698 330.063 15.4969 330.441 15.5472C332.421 15.8239 333.984 17.3836 334.262 19.3585C334.312 19.7233 334.64 20 335.006 20C335.46 20 335.813 19.5975 335.75 19.1447C335.371 16.5157 333.278 14.4277 330.643 14.0629C330.189 14 329.798 14.3522 329.798 14.805Z" fill="#0B0C0D"/>
    </g>
    <path fill-rule="evenodd" clip-rule="evenodd" d="M424 22C422.895 22 422 21.1046 422 20C422 18.8954 422.895 18 424 18C425.105 18 426 18.8954 426 20C426 21.1046 425.105 22 424 22ZM416 22C414.895 22 414 21.1046 414 20C414 18.8954 414.895 18 416 18C417.105 18 418 18.8954 418 20C418 21.1046 417.105 22 416 22ZM406 20C406 21.1046 406.895 22 408 22C409.105 22 410 21.1046 410 20C410 18.8954 409.105 18 408 18C406.895 18 406 18.8954 406 20Z" fill="#616D77"/>
    <defs>
        <linearGradient id="paint0_linear_9195_48982" x1="54.399" y1="16.5019" x2="44.3933" y2="16.5019" gradientUnits="userSpaceOnUse">
            <stop stop-color="#1F5CD7"/>
            <stop offset="1" stop-color="#02AEFF"/>
        </linearGradient>
        <clipPath id="clip0_9195_48982">
            <rect width="44" height="12" fill="white" transform="translate(12 14)"/>
        </clipPath>
        <clipPath id="clip1_9195_48982">
            <rect width="36.8889" height="12" fill="white" transform="translate(122.226 14)"/>
        </clipPath>
        <clipPath id="clip2_9195_48982">
            <rect width="27" height="11.25" fill="white" transform="translate(201.395 13.125)"/>
        </clipPath>
        <clipPath id="clip3_9195_48982">
            <rect width="16.2167" height="20" fill="white" transform="translate(178.895 10)"/>
        </clipPath>
        <clipPath id="clip4_9195_48982">
            <rect width="72" height="12" fill="white" transform="translate(312.22 14)"/>
        </clipPath>
    </defs>
</svg>
