<svg xmlns="http://www.w3.org/2000/svg" width="24" height="24" fill="none"><path fill="#333333" d="M17.384 12.599A1.8 1.8 0 0 1 19 14.389v2.29l-.01.183a1.8 1.8 0 0 1-1.606 1.607l-.184.01H6.8a1.8 1.8 0 0 1-1.79-1.617L5 16.68v-2.29a1.8 1.8 0 0 1 1.8-1.8h10.4zM6.8 13.989a.4.4 0 0 0-.4.4v2.29c0 .22.179.399.4.4h10.4a.4.4 0 0 0 .4-.4v-2.29a.4.4 0 0 0-.4-.4zm10.584-8.48A1.8 1.8 0 0 1 19 7.3v2.29l-.01.184a1.8 1.8 0 0 1-1.606 1.607l-.184.01H6.8a1.8 1.8 0 0 1-1.79-1.617L5 9.59V7.3a1.8 1.8 0 0 1 1.8-1.8h10.4zM6.8 6.9a.4.4 0 0 0-.4.4v2.29c0 .22.179.4.4.4h10.4a.4.4 0 0 0 .4-.4V7.3a.4.4 0 0 0-.4-.4z"/></svg>
