<svg width="24" height="24" viewBox="0 0 24 24" fill="none" xmlns="http://www.w3.org/2000/svg">
<path fill-rule="evenodd" clip-rule="evenodd" d="M12.6494 6.52402C12.6494 6.16504 12.3584 5.87402 11.9994 5.87402C11.6404 5.87402 11.3494 6.16504 11.3494 6.52402L11.3494 14.4179C11.3494 14.7769 11.6404 15.0679 11.9994 15.0679C12.3584 15.0679 12.6494 14.7769 12.6494 14.4179L12.6494 6.52402ZM12.8494 17.395C12.8494 16.9255 12.4689 16.545 11.9994 16.545C11.53 16.545 11.1494 16.9255 11.1494 17.395V17.8588C11.1494 18.3283 11.53 18.7088 11.9994 18.7088C12.4689 18.7088 12.8494 18.3283 12.8494 17.8588V17.395Z" fill="black"/>
</svg>
