<svg width="24" height="24" viewBox="0 0 24 24" fill="none" xmlns="http://www.w3.org/2000/svg">
<path d="M12.55 7.96504C12.55 7.66128 12.3038 7.41504 12 7.41504C11.6962 7.41504 11.45 7.66128 11.45 7.96504L11.45 14.4185C11.45 14.7222 11.6962 14.9685 12 14.9685C12.3038 14.9685 12.55 14.7222 12.55 14.4185L12.55 7.96504Z" fill="black"/>
<path d="M12.75 17.2089C12.75 16.7947 12.4142 16.4589 12 16.4589C11.5858 16.4589 11.25 16.7947 11.25 17.2089V17.5595C11.25 17.9737 11.5858 18.3095 12 18.3095C12.4142 18.3095 12.75 17.9737 12.75 17.5595V17.2089Z" fill="black"/>
</svg>
