<svg width="24" height="24" viewBox="0 0 24 24" fill="none" xmlns="http://www.w3.org/2000/svg">
<path fill-rule="evenodd" clip-rule="evenodd" d="M16.5264 16.5391C17.2952 16.5391 18.1879 16.6622 18.9287 17.0947C19.7127 17.5525 20.2721 18.3292 20.3506 19.4756C20.3517 19.4915 20.3525 19.5075 20.3525 19.5234C20.3524 20.0422 19.9318 20.4629 19.4131 20.4629H13.6338C13.1151 20.4628 12.6945 20.0421 12.6943 19.5234C12.6943 19.5076 12.6952 19.4915 12.6963 19.4756C12.7748 18.3284 13.3363 17.5511 14.1211 17.0938C14.863 16.6615 15.7575 16.5391 16.5264 16.5391ZM16.5264 17.9395C15.8732 17.9395 15.2634 18.049 14.8262 18.3037C14.5458 18.4671 14.3199 18.7003 14.1943 19.0625H18.8545C18.7292 18.6995 18.5022 18.467 18.2227 18.3037C17.787 18.0494 17.1793 17.9395 16.5264 17.9395Z" fill="#15C674"/>
<path fill-rule="evenodd" clip-rule="evenodd" d="M13.4727 3.98048C14.1957 3.97844 14.8895 4.26666 15.3984 4.78028L17.7168 7.11915C18.2177 7.62468 18.498 8.30791 18.498 9.01954V9.08595C18.4979 9.37929 18.3174 9.63024 18.0615 9.73439C17.9748 9.7728 17.8792 9.79493 17.7783 9.79493H14.7871C14.2334 9.79493 13.701 9.57642 13.3086 9.18556C12.9163 8.79472 12.6954 8.2638 12.6953 7.70997V5.38185L8.20312 5.39552C7.48674 5.39767 6.90731 5.97894 6.90723 6.69532V17.2969C6.90723 18.0149 7.48906 18.5967 8.20703 18.5967H10.9766C11.3629 18.5969 11.6757 18.9105 11.6758 19.2969C11.6758 19.6833 11.363 19.9969 10.9766 19.9971H8.20703C6.71586 19.9971 5.50684 18.7881 5.50684 17.2969V6.69532C5.50692 5.20728 6.71117 3.99944 8.19922 3.99513L13.4727 3.98048ZM14.0957 7.70997C14.0958 7.89078 14.1677 8.0647 14.2969 8.19337C14.4263 8.32225 14.6029 8.39552 14.7871 8.39552H16.9375C16.8796 8.28994 16.8079 8.19148 16.7217 8.1045L14.4033 5.76564C14.3118 5.67328 14.2081 5.59574 14.0957 5.53517V7.70997Z" fill="#15C674"/>
<path fill-rule="evenodd" clip-rule="evenodd" d="M16.5186 11.2998C17.1727 11.2999 17.6892 11.5447 18.0557 11.9277L18.2041 12.0996L18.2061 12.1025C18.5648 12.5739 18.7201 13.1834 18.708 13.7666C18.6959 14.3483 18.515 14.951 18.1484 15.416L18.1494 15.417C17.7784 15.8951 17.2205 16.2148 16.5186 16.2149C15.3246 16.2147 14.6179 15.3221 14.4082 14.3731C14.2115 13.4764 14.4306 12.3912 15.1963 11.7627C15.2239 11.7352 15.2545 11.7096 15.2871 11.6865C15.4347 11.5824 15.6297 11.4859 15.8486 11.415C16.0617 11.3446 16.2974 11.2999 16.5186 11.2998ZM16.5186 12.7002C16.4737 12.7003 16.3861 12.7115 16.2852 12.7451L16.2793 12.7471C16.2287 12.7634 16.1857 12.7817 16.1523 12.7979C16.1352 12.8062 16.1219 12.8137 16.1123 12.8193L16.1113 12.8213C15.8439 13.019 15.6537 13.5159 15.7754 14.0713L15.8271 14.2539C15.9649 14.6473 16.2232 14.8143 16.5186 14.8145C16.7548 14.8144 16.9161 14.722 17.043 14.5586L17.0479 14.5527C17.1949 14.3675 17.3015 14.073 17.3086 13.7383C17.3156 13.4041 17.2222 13.1235 17.0938 12.9531C16.9846 12.8115 16.8238 12.7003 16.5186 12.7002Z" fill="#15C674"/>
<path d="M9.88184 14.2744C10.2684 14.2744 10.582 14.588 10.582 14.9746C10.582 15.3612 10.2684 15.6748 9.88184 15.6748H9C8.6134 15.6748 8.2998 15.3612 8.2998 14.9746C8.29981 14.588 8.6134 14.2744 9 14.2744H9.88184Z" fill="#15C674"/>
<path d="M11.6455 11.2744C12.0321 11.2744 12.3457 11.588 12.3457 11.9746C12.3457 12.3612 12.0321 12.6748 11.6455 12.6748H9C8.6134 12.6748 8.2998 12.3612 8.2998 11.9746C8.29981 11.588 8.6134 11.2744 9 11.2744H11.6455Z" fill="#15C674"/>
</svg>
