<svg xmlns="http://www.w3.org/2000/svg" width="26" height="26" fill="none"><path fill="#333333" d="M18.753 5.324a3.034 3.034 0 0 1 3.033 3.033v2.786l-.001.005v.004c0 .418-.338.759-.757.759H5.735v5.746c0 .837.679 1.516 1.516 1.516h2.534a.759.759 0 0 1 0 1.517H7.25a3.033 3.033 0 0 1-3.033-3.033v-9.3a3.033 3.033 0 0 1 3.033-3.033zm2.671 9.057a.759.759 0 0 1 1.119 1.025l-4.303 4.699a1.19 1.19 0 0 1-1.733.026l-1.925-1.977a.76.76 0 0 1 1.088-1.058l1.683 1.73zM7.251 6.841c-.837 0-1.516.679-1.516 1.516v2.036h14.534V8.357c0-.837-.68-1.516-1.516-1.517zm1.394 1.076a.76.76 0 0 1 0 1.518H7.79a.76.76 0 0 1 0-1.518zm3.23 0a.759.759 0 0 1 0 1.518h-.858a.76.76 0 0 1 0-1.518z"/></svg>