<svg width="24" height="24" viewBox="0 0 24 24" fill="none" xmlns="http://www.w3.org/2000/svg">
	<path d="M10.5811 3.05946C10.9649 3.0147 11.3125 3.28982 11.3574 3.67372C11.402 4.05747 11.127 4.40519 10.7432 4.45008C7.11757 4.87454 4.2999 7.96116 4.2998 11.7001C4.29999 15.7292 7.57147 18.9997 11.6006 18.9999C12.8672 18.9998 14.0534 18.6784 15.083 18.1151C15.3331 17.9782 15.6043 17.9608 15.8018 17.9677C16.0129 17.9751 16.2342 18.0144 16.4424 18.0634C16.8575 18.1611 17.3283 18.3235 17.7471 18.4696C18.0753 18.5842 18.3706 18.6875 18.623 18.7636C18.5476 18.4953 18.45 18.1799 18.3418 17.8358C18.2053 17.4018 18.0575 16.9235 17.9678 16.5097C17.923 16.303 17.8874 16.0871 17.8789 15.8866C17.8714 15.7084 17.8796 15.4348 18.0146 15.1854L18.0156 15.1825C18.441 14.405 18.7285 13.5385 18.8438 12.621C18.8919 12.2376 19.2416 11.9657 19.625 12.0136C20.0085 12.0617 20.2804 12.4113 20.2324 12.7948C20.098 13.8648 19.7674 14.8775 19.2783 15.7899C19.2781 15.7996 19.2767 15.8125 19.2773 15.828C19.281 15.9148 19.299 16.0423 19.3359 16.2128C19.4099 16.5541 19.5383 16.9728 19.6777 17.4159C19.8116 17.8413 19.9588 18.2995 20.0488 18.6679C20.0934 18.8502 20.1336 19.0468 20.1445 19.2255C20.1499 19.3146 20.1495 19.4281 20.127 19.5468C20.1054 19.6597 20.0506 19.8446 19.8926 20.0028C19.6295 20.2656 19.2876 20.2841 19.1211 20.2811C18.9231 20.2775 18.7141 20.2368 18.5273 20.1903C18.1513 20.0968 17.697 19.9356 17.2852 19.7919C16.8524 19.6408 16.453 19.5036 16.1221 19.4257C15.9573 19.3869 15.8353 19.37 15.7529 19.3671C15.7341 19.3664 15.7198 19.3666 15.71 19.3671C14.489 20.0257 13.0886 20.4002 11.6006 20.4003C6.79827 20.4001 2.90058 16.5024 2.90039 11.7001C2.90048 7.24226 6.25836 3.56531 10.5811 3.05946Z" fill="#15C674"/>
	<path d="M13.1055 12.205C13.3789 11.9318 13.8224 11.9318 14.0957 12.205L15.5957 13.7069C15.7269 13.8383 15.8009 14.0164 15.8008 14.202C15.8006 14.3876 15.727 14.566 15.5957 14.6972L14.0957 16.1952C13.8223 16.4681 13.3786 16.4684 13.1055 16.1952C12.8325 15.9219 12.8325 15.4782 13.1055 15.205L13.4102 14.9003H8.60059C8.21402 14.9003 7.90045 14.5866 7.90039 14.2001C7.90039 13.8135 8.21399 13.4999 8.60059 13.4999H13.4102L13.1055 13.1952C12.8325 12.9219 12.8325 12.4782 13.1055 12.205Z" fill="#15C674"/>
	<path d="M9.10547 7.20497C9.37889 6.93182 9.82245 6.93171 10.0957 7.20497C10.3688 7.4784 10.3689 7.92198 10.0957 8.1952L9.79102 8.49989H11.1455C11.5321 8.49989 11.8457 8.81349 11.8457 9.20009C11.8456 9.58663 11.5321 9.90028 11.1455 9.90028H9.79102L10.0957 10.205C10.3688 10.4784 10.3689 10.922 10.0957 11.1952C9.8223 11.4682 9.3787 11.4683 9.10547 11.1952L7.60547 9.69325C7.4743 9.56195 7.40034 9.38372 7.40039 9.19813C7.40051 9.01257 7.47422 8.83419 7.60547 8.70301L9.10547 7.20497Z" fill="#15C674"/>
	<path d="M18.8252 3.93055C19.0986 3.65726 19.5421 3.65722 19.8154 3.93055C20.0888 4.2039 20.0887 4.64742 19.8154 4.92079L17.8105 6.92567L19.8154 8.93055C20.0888 9.2039 20.0887 9.64742 19.8154 9.92079C19.5421 10.1942 19.0986 10.1942 18.8252 9.92079L16.8203 7.91591L14.8154 9.92079C14.5421 10.1942 14.0986 10.1942 13.8252 9.92079C13.5518 9.64742 13.5518 9.20392 13.8252 8.93055L15.8301 6.92567L13.8252 4.92079C13.5518 4.64742 13.5518 4.20392 13.8252 3.93055C14.0986 3.65726 14.5421 3.65722 14.8154 3.93055L16.8203 5.93544L18.8252 3.93055Z" fill="#15C674"/>
</svg>
