<svg width="18" height="17" viewBox="0 0 18 17" fill="none" xmlns="http://www.w3.org/2000/svg">
<path d="M12.1488 7.2146C12.5439 7.17035 12.9461 7.16813 13.3363 7.21362C13.9766 7.28844 14.4186 7.76129 14.5882 8.27124L14.639 8.42456C14.6767 8.53802 14.7901 8.60791 14.9085 8.59155L15.0863 8.56713C15.6053 8.49505 16.2029 8.6698 16.5619 9.17651C16.7959 9.50692 16.985 9.86291 17.1273 10.2341C17.3493 10.8136 17.1641 11.4081 16.8158 11.8005L16.6976 11.9333C16.6182 12.0228 16.6133 12.1563 16.6869 12.2507L16.7982 12.3923C17.1207 12.8063 17.2685 13.4127 17.0081 13.9773C16.8458 14.3295 16.6378 14.6678 16.3841 14.9841C15.9938 15.4708 15.3819 15.6124 14.8617 15.5056L14.6878 15.4695C14.5707 15.4455 14.4525 15.509 14.4076 15.6199L14.3333 15.8035C14.1357 16.2908 13.683 16.7229 13.0619 16.7781C12.668 16.8131 12.2684 16.7996 11.8734 16.7351C11.2635 16.6353 10.8463 16.1773 10.682 15.6833L10.6204 15.4978C10.5827 15.3844 10.4692 15.3145 10.3509 15.3308L10.1703 15.3552C9.65067 15.4274 9.05247 15.2526 8.69369 14.7449C8.46065 14.4151 8.27201 14.0605 8.13021 13.6902C7.90838 13.1107 8.09441 12.516 8.44271 12.1238L8.56185 11.989C8.64119 11.8995 8.6461 11.766 8.5726 11.6716L8.46224 11.53C8.1396 11.1158 7.99143 10.5098 8.25228 9.94506C8.41515 9.59265 8.6239 9.25369 8.87826 8.93725C9.26874 8.45173 9.88002 8.31101 10.3997 8.41772L10.5716 8.45288C10.6888 8.47685 10.806 8.41331 10.8509 8.30249L10.8958 8.19213C11.0945 7.70243 11.5436 7.28252 12.1488 7.2146ZM13.1742 8.60424C12.8972 8.57196 12.6024 8.5729 12.305 8.6062C12.2932 8.60752 12.2766 8.61193 12.2562 8.62866C12.2343 8.64655 12.2106 8.67686 12.1937 8.7185L12.1488 8.82885C11.8501 9.56513 11.0687 9.98357 10.2904 9.82397L10.1175 9.78881C10.0726 9.77961 10.034 9.78364 10.0081 9.79174C9.9845 9.79919 9.97419 9.80883 9.96908 9.81518C9.78673 10.0421 9.63891 10.2829 9.52377 10.532C9.5212 10.5375 9.51708 10.5496 9.52084 10.573C9.52504 10.5987 9.53875 10.6337 9.56674 10.6697L9.67611 10.8113C10.1645 11.4381 10.1363 12.3245 9.60873 12.9187L9.48959 13.0535C9.45925 13.0876 9.44365 13.1227 9.43783 13.1482C9.43261 13.1713 9.43552 13.1832 9.43783 13.1892C9.53854 13.4523 9.67232 13.7039 9.83724 13.9373C9.84082 13.9423 9.84861 13.9514 9.87045 13.9597C9.89477 13.969 9.93254 13.9748 9.97787 13.9685L10.1576 13.9441C10.9447 13.8346 11.6978 14.3023 11.9486 15.0564L12.0101 15.2419C12.0244 15.285 12.047 15.3152 12.0658 15.3328C12.0829 15.3487 12.0944 15.3524 12.0999 15.3533C12.378 15.3987 12.6596 15.4082 12.9378 15.3835C12.9438 15.383 12.9557 15.3807 12.974 15.366C12.9942 15.3495 13.0192 15.3196 13.0365 15.2771L13.1107 15.0935C13.4093 14.3572 14.1908 13.9387 14.9691 14.0984L15.1429 14.1345C15.1878 14.1437 15.2263 14.1397 15.2523 14.1316C15.2759 14.1242 15.2862 14.1145 15.2913 14.1081C15.4735 13.881 15.6218 13.6396 15.7367 13.3904C15.7392 13.3847 15.7423 13.3731 15.7386 13.3503C15.7345 13.3246 15.7218 13.2887 15.6937 13.2527L15.5824 13.1111C15.094 12.4842 15.1231 11.5979 15.6507 11.0037L15.7689 10.8708C15.7991 10.8367 15.8148 10.8016 15.8206 10.7761C15.8258 10.753 15.822 10.7411 15.8197 10.7351C15.7186 10.4716 15.5848 10.2198 15.4193 9.98608C15.4158 9.98115 15.408 9.97202 15.3861 9.96362C15.3618 9.95437 15.3239 9.94755 15.2787 9.95385L15.1019 9.97827C14.3148 10.0878 13.5617 9.62003 13.3109 8.86596L13.2601 8.71264C13.2453 8.66825 13.222 8.63753 13.2035 8.62085C13.1876 8.60662 13.178 8.60473 13.1742 8.60424Z" fill="#525C69"/>
<path d="M13.1859 11.99C13.1858 11.6808 12.9345 11.4304 12.6253 11.4304C12.3162 11.4305 12.0659 11.6809 12.0658 11.99C12.0658 12.2992 12.3162 12.5504 12.6253 12.5505C12.9346 12.5505 13.1859 12.2993 13.1859 11.99ZM14.5853 11.99C14.5853 13.0725 13.7078 13.9499 12.6253 13.9499C11.543 13.9498 10.6654 13.0724 10.6654 11.99C10.6655 10.9077 11.543 10.0302 12.6253 10.03C13.7077 10.03 14.5852 10.9076 14.5853 11.99Z" fill="#525C69"/>
<path d="M5.20394 0C5.8091 0 6.3692 0.321762 6.67367 0.844727L7.05258 1.49707C7.26954 1.87012 7.26965 2.3311 7.05258 2.7041L6.67367 3.35547C6.36922 3.87852 5.80916 4.2002 5.20394 4.2002H1.78695C0.848067 4.2002 0.0867564 3.43888 0.0867564 2.5V1.7002C0.0867564 0.761311 0.848068 0 1.78695 0H5.20394ZM1.48715 2.5C1.48715 2.66569 1.62127 2.7998 1.78695 2.7998H5.20394C5.3107 2.7998 5.40997 2.74359 5.46371 2.65137L5.78402 2.09961L5.46371 1.54883C5.40995 1.45669 5.31064 1.40039 5.20394 1.40039H1.78695C1.62127 1.40039 1.48715 1.53451 1.48715 1.7002V2.5Z" fill="#525C69"/>
<path d="M13.3153 0C13.9204 0 14.4805 0.321762 14.785 0.844727L15.1639 1.49707C15.3809 1.87012 15.381 2.3311 15.1639 2.7041L14.785 3.35547C14.4805 3.87852 13.9205 4.2002 13.3153 4.2002H9.89828C8.9594 4.2002 8.19808 3.43888 8.19808 2.5V1.7002C8.19808 0.761311 8.9594 0 9.89828 0H13.3153ZM9.59848 2.5C9.59848 2.66569 9.7326 2.7998 9.89828 2.7998H13.3153C13.422 2.7998 13.5213 2.74359 13.575 2.65137L13.8954 2.09961L13.575 1.54883C13.5213 1.45669 13.422 1.40039 13.3153 1.40039H9.89828C9.73259 1.40039 9.59848 1.53451 9.59848 1.7002V2.5Z" fill="#525C69"/>
<path d="M5.5498 6.71215C5.5498 6.54647 5.41568 6.41235 5.25 6.41235H1.7002C1.53451 6.41235 1.40039 6.54647 1.40039 6.71215V13.2834C1.40039 13.4491 1.53451 13.5832 1.7002 13.5832H5.25C5.41569 13.5832 5.5498 13.4491 5.5498 13.2834V6.71215ZM6.9502 13.2834C6.9502 14.2223 6.18888 14.9836 5.25 14.9836H1.7002C0.76131 14.9836 0 14.2223 0 13.2834V6.71215C0 5.77327 0.761311 5.01196 1.7002 5.01196H5.25C6.18889 5.01196 6.9502 5.77327 6.9502 6.71215V13.2834Z" fill="#525C69"/>
<path d="M8.19808 6.56606C8.19808 5.75878 8.85271 5.10415 9.66 5.10415H13.7596C14.1462 5.10415 14.4598 5.41775 14.4598 5.80435C14.4598 6.19094 14.1462 6.50454 13.7596 6.50454H9.66C9.62591 6.50454 9.59848 6.53198 9.59848 6.56606C9.59848 6.95266 9.28488 7.26626 8.89828 7.26626C8.51168 7.26626 8.19808 6.95266 8.19808 6.56606Z" fill="#525C69"/>
</svg>
