<svg width="150" height="150" viewBox="0 0 150 150" fill="none" xmlns="http://www.w3.org/2000/svg">
<rect width="150" height="150" fill="white"/>
<path d="M74.6999 110.97C62.5699 110.97 50.4399 111 38.2999 110.96C32.8299 110.94 30.0599 108.2 30.0499 102.76C30.0199 84.1399 30.0299 65.5199 30.0499 46.8999C30.0499 42.4999 32.6499 39.1799 37.0899 39.1499C62.5199 38.9899 87.9399 38.9699 113.37 39.1699C117.18 39.1999 119.86 41.9499 119.88 45.9799C119.99 65.2699 119.97 84.5499 119.9 103.84C119.88 108.11 116.67 110.95 112.1 110.97C99.6399 111.02 87.1699 110.99 74.7099 110.98L74.6999 110.97ZM75.1699 104.98C86.4799 104.98 97.7899 104.86 109.09 105.05C112.68 105.11 114.05 104.23 114 100.35C113.8 83.3799 113.83 66.4099 113.99 49.4399C114.02 45.8699 112.79 44.9399 109.39 44.9599C86.4399 45.0799 63.4899 45.0799 40.5399 44.9599C37.0999 44.9399 35.9399 45.9399 35.9699 49.4699C36.1299 66.2699 36.1299 83.0799 35.9699 99.8799C35.9299 103.85 37.3899 105.1 41.2399 105.04C52.5499 104.86 63.8599 104.98 75.1599 104.98H75.1699Z" fill="#DFE1EE"/>
<path d="M74.46 98.9802C65.66 98.9802 56.85 99.0502 48.05 98.9202C46.09 98.8902 43.21 99.5 42.39 97.5102C41.66 94.6202 40.86 91.0702 43.21 88.4502C46.76 84.5002 50.64 80.8502 54.43 77.1202C56.76 74.8202 58.5 76.6002 59.77 78.3302C62.86 82.5202 65.37 81.4602 68.44 78.1802C73.78 72.4802 79.51 67.1602 84.91 61.5302C87.02 59.3302 88.47 58.7102 90.88 61.3002C94.92 65.6302 99.23 69.7302 103.68 73.6402C108.09 77.5202 108.09 82.4202 108 87.6502C107.82 98.9702 107.95 98.9702 96.87 98.9702C89.4 98.9702 81.92 98.9702 74.45 98.9702L74.46 98.9802Z" fill="#DFE0EE"/>
<path d="M42.03 60.05C42.03 55 46 51.0401 51.18 51.04C56 51.04 60 54.6 60 60.05C60 65.5 56 69 51 69C46 69 42.03 65 42.03 60.05Z" fill="#DFE0EE"/>
</svg>
