<svg xmlns="http://www.w3.org/2000/svg" width="24" height="24" fill="none"><path fill="#333" d="M11.176 4.136a.702.702 0 0 1 .764.814c-.107.624.108 1.036.248 1.278a2.299 2.299 0 0 0 .328.386c.18.161.357.253.496.312.282.12.676.17.95.12.175-.032.278-.064.354-.092.095-.035.146-.063.303-.132a.701.701 0 0 1 .965.793c-.181.81-.12 1.503.106 2.132.178.493.466.963.833 1.336.306.31.64.562 1.094.776.24.114.522.21.69.25.166.04.597.1.85.101a.7.7 0 0 1 .693.799 7.95 7.95 0 0 1-1.284 3.373 7.895 7.895 0 0 1-8.103 3.356A7.894 7.894 0 0 1 4.71 8.977a7.92 7.92 0 0 1 2.908-3.553 7.65 7.65 0 0 1 3.558-1.288m-.642 1.521a6.2 6.2 0 0 0-2.138.93 6.52 6.52 0 0 0-2.76 6.677 6.493 6.493 0 0 0 11.766 2.34c.454-.679.745-1.362.922-2.07a5 5 0 0 1-.349-.065 5.4 5.4 0 0 1-.958-.344 5.09 5.09 0 0 1-2.643-2.903 4.9 4.9 0 0 1-.294-1.782 3.3 3.3 0 0 1-1.615-.225 3.2 3.2 0 0 1-.886-.563 3.4 3.4 0 0 1-.602-.723 3.3 3.3 0 0 1-.443-1.272m2.93 8.41a1.302 1.302 0 1 1 0 2.604 1.302 1.302 0 0 1 0-2.605m-4.53-.35a1.055 1.055 0 1 1 0 2.11 1.055 1.055 0 0 1 0-2.11m3.78-3.358a1.055 1.055 0 1 1 0 2.11 1.055 1.055 0 0 1 0-2.11m-3.78-1.047a1.302 1.302 0 1 1-.002 2.605 1.302 1.302 0 0 1 .001-2.605"/></svg>