<svg width="24" height="24" viewBox="0 0 24 24" fill="none" xmlns="http://www.w3.org/2000/svg">
<path fill-rule="evenodd" clip-rule="evenodd" d="M13.4727 3.98048C14.1955 3.97857 14.8896 4.26677 15.3984 4.78028L17.7168 7.11915C18.2175 7.62461 18.4979 8.30804 18.498 9.01954V10.7959C18.498 11.1822 18.185 11.4956 17.7988 11.4961C17.4122 11.4961 17.0986 11.1825 17.0986 10.7959V9.79493H14.7861C14.2324 9.79493 13.7 9.57642 13.3076 9.18556C12.9153 8.79472 12.6945 8.2638 12.6943 7.70997V5.38185L8.20312 5.39552C7.48682 5.39767 6.90744 5.97905 6.90723 6.69532V17.2969C6.90723 18.0149 7.48906 18.5967 8.20703 18.5967H9.79395C10.1802 18.597 10.494 18.9106 10.4941 19.2969C10.4941 19.6833 10.1803 19.9968 9.79395 19.9971H8.20703C6.71586 19.9971 5.50586 18.7881 5.50586 17.2969V6.69532C5.50607 5.20739 6.71125 3.99944 8.19922 3.99513L13.4727 3.98048ZM14.0947 7.70997C14.0948 7.89078 14.1668 8.0647 14.2959 8.19337C14.4253 8.32225 14.6019 8.39552 14.7861 8.39552H16.9375C16.8797 8.28998 16.8078 8.19146 16.7217 8.1045L14.4033 5.76563C14.3117 5.67314 14.2073 5.59578 14.0947 5.53517V7.70997Z" fill="#15C674"/>
<path d="M14.1055 15.8828C14.4918 15.8831 14.8047 16.1966 14.8047 16.583C14.8046 16.9694 14.4918 17.2829 14.1055 17.2832H14.0439C13.6574 17.2832 13.3438 16.9696 13.3438 16.583C13.3438 16.1964 13.6573 15.8828 14.0439 15.8828H14.1055Z" fill="#15C674"/>
<path d="M16.6641 15.8828C17.0504 15.8831 17.3633 16.1966 17.3633 16.583C17.3632 16.9694 17.0504 17.2829 16.6641 17.2832H16.6025C16.216 17.2832 15.9024 16.9696 15.9023 16.583C15.9023 16.1964 16.2159 15.8828 16.6025 15.8828H16.6641Z" fill="#15C674"/>
<path fill-rule="evenodd" clip-rule="evenodd" d="M16.6641 12.7031C16.9678 12.7031 17.2243 12.8976 17.3213 13.168H17.7061C18.6446 13.1682 19.4061 13.9296 19.4062 14.8682V18.2969C19.4062 19.2356 18.6447 19.9968 17.7061 19.9971H13.0029C12.064 19.9971 11.3027 19.2358 11.3027 18.2969V14.8682C11.3029 13.9294 12.0641 13.168 13.0029 13.168H13.3877C13.4847 12.8976 13.7413 12.7031 14.0449 12.7031C14.3484 12.7033 14.6042 12.8978 14.7012 13.168H16.0068C16.1038 12.8976 16.3604 12.7031 16.6641 12.7031ZM13.0029 14.5684C12.8373 14.5684 12.7033 14.7026 12.7031 14.8682V18.2969C12.7031 18.4626 12.8372 18.5967 13.0029 18.5967H17.7061C17.8715 18.5964 18.0059 18.4624 18.0059 18.2969V14.8682C18.0057 14.7028 17.8714 14.5686 17.7061 14.5684H17.3506C17.2883 14.8911 17.0051 15.1348 16.6641 15.1348C16.3231 15.1348 16.0398 14.8911 15.9775 14.5684H14.7314C14.6692 14.891 14.3857 15.1345 14.0449 15.1348C13.7039 15.1348 13.4197 14.8912 13.3574 14.5684H13.0029Z" fill="#15C674"/>
<path d="M9.43066 14.2744C9.81704 14.2747 10.1299 14.5882 10.1299 14.9746C10.1299 15.3611 9.81704 15.6746 9.43066 15.6748H9C8.6134 15.6748 8.2998 15.3612 8.2998 14.9746C8.29981 14.588 8.6134 14.2744 9 14.2744H9.43066Z" fill="#15C674"/>
<path d="M10.3193 11.2744C10.7059 11.2744 11.0195 11.588 11.0195 11.9746C11.0195 12.3612 10.7059 12.6748 10.3193 12.6748H9C8.6134 12.6748 8.2998 12.3612 8.2998 11.9746C8.29981 11.588 8.6134 11.2744 9 11.2744H10.3193Z" fill="#15C674"/>
</svg>
