<svg width="28" height="28" viewBox="0 0 28 28" fill="none" xmlns="http://www.w3.org/2000/svg">
	<path d="M14.1836 2.66699C20.4348 2.66699 25.333 7.76031 25.333 14.0332C25.343 16.999 24.1814 19.8477 22.1025 21.9541C20.0234 24.0606 17.1964 25.2527 14.2432 25.2686C12.019 25.2685 10.9853 24.9422 9.18848 23.6377C8.0519 25.1054 4.45285 26.2524 4.2959 24.29C4.29587 22.817 3.97056 21.5718 3.60254 20.2129C3.16418 18.5388 2.66699 16.6739 2.66699 13.9727C2.66723 7.52074 7.93814 2.66719 14.1836 2.66699ZM14.3359 8.24414C11.2942 8.0865 8.92343 10.2008 8.39844 13.5166C7.9655 16.2615 8.73381 19.6041 9.38867 19.7783C9.70256 19.8544 10.4928 19.2134 10.9854 18.7188C11.7996 19.2837 12.7479 19.6226 13.7344 19.7021C15.2494 19.7753 16.7327 19.2487 17.8652 18.2354C18.9977 17.222 19.6892 15.8031 19.791 14.2832C19.8502 12.7601 19.3123 11.2739 18.292 10.1455C17.2718 9.01719 15.851 8.33628 14.3359 8.24902V8.24414Z" fill="white"/>
</svg>
