<svg xmlns="http://www.w3.org/2000/svg" width="26" height="26" fill="none"><path fill="#333333" d="M18.964 13.656a.65.65 0 0 1 .648.65v2.6h2.6a.65.65 0 0 1 0 1.3l-2.6-.001v2.601a.65.65 0 1 1-1.299 0v-2.601h-2.6a.65.65 0 1 1 0-1.298l2.6-.001v-2.6c0-.358.292-.65.65-.65m-.21-8.224a2.925 2.925 0 0 1 2.923 2.925v2.795a.65.65 0 0 1-.649.65H5.627v5.855c0 .897.727 1.625 1.625 1.625h4.591a.65.65 0 1 1 0 1.299H7.252a2.925 2.925 0 0 1-2.925-2.924v-9.3a2.925 2.925 0 0 1 2.925-2.925zm-11.502 1.3c-.898 0-1.625.728-1.625 1.625v2.146h14.752V8.357c0-.897-.729-1.624-1.626-1.625zm1.393 1.295a.65.65 0 1 1 0 1.299H7.79a.65.65 0 1 1 0-1.299zm3.23 0a.65.65 0 1 1 0 1.299h-.858a.65.65 0 1 1 0-1.299z"/></svg>