<svg width="24" height="24" viewBox="0 0 24 24" fill="none" xmlns="http://www.w3.org/2000/svg">
<path d="M13.5605 8.31934C13.7714 7.99551 14.2053 7.90355 14.5293 8.11426C14.8532 8.32505 14.945 8.759 14.7344 9.08301L10.4395 15.6836C10.2286 16.0075 9.79468 16.0994 9.4707 15.8887C9.1468 15.6778 9.05498 15.2439 9.26562 14.9199L13.5605 8.31934Z" fill="#15C674"/>
<path fill-rule="evenodd" clip-rule="evenodd" d="M16.499 4.50098C18.1556 4.50124 19.4989 5.84437 19.499 7.50098V16.499C19.499 18.1557 18.1557 19.4988 16.499 19.499H7.50098C5.84421 19.4989 4.5 18.1558 4.5 16.499V7.50098C4.50011 5.84428 5.84428 4.50108 7.50098 4.50098H16.499ZM7.50098 5.90137C6.61748 5.90147 5.90147 6.61748 5.90137 7.50098V16.499C5.90137 17.3826 6.61741 18.0995 7.50098 18.0996H16.499C17.3825 18.0993 18.0996 17.3825 18.0996 16.499V7.50098C18.0995 6.61757 17.3824 5.90163 16.499 5.90137H7.50098Z" fill="#15C674"/>
</svg>
