<svg width="24" height="24" viewBox="0 0 24 24" fill="none" xmlns="http://www.w3.org/2000/svg">
<path d="M12.6002 7.28848C12.6002 6.95711 12.3316 6.68848 12.0002 6.68848C11.6688 6.68848 11.4002 6.95711 11.4002 7.28848L11.4002 14.4187C11.4002 14.7501 11.6688 15.0187 12.0002 15.0187C12.3316 15.0187 12.6002 14.7501 12.6002 14.4187L12.6002 7.28848Z" fill="black"/>
<path d="M12.8002 17.2682C12.8002 16.8264 12.442 16.4682 12.0002 16.4682C11.5584 16.4682 11.2002 16.8264 11.2002 17.2682L11.2002 17.5905C11.2002 18.0323 11.5584 18.3905 12.0002 18.3905C12.442 18.3905 12.8002 18.0323 12.8002 17.5905L12.8002 17.2682Z" fill="black"/>
</svg>
