<svg width="24" height="24" viewBox="0 0 24 24" fill="none" xmlns="http://www.w3.org/2000/svg">
<path fill-rule="evenodd" clip-rule="evenodd" d="M13.4727 3.98048C14.1957 3.97844 14.8895 4.26666 15.3984 4.78028L17.7168 7.11915C18.2177 7.62468 18.498 8.3079 18.498 9.01954V10.3936C18.498 10.78 18.1852 11.0935 17.7988 11.0938C17.4122 11.0938 17.0986 10.7802 17.0986 10.3936V9.79493H14.7871C14.2334 9.79493 13.701 9.57642 13.3086 9.18556C12.9163 8.79472 12.6954 8.2638 12.6953 7.70997V5.38185L8.20312 5.39552C7.48674 5.39767 6.90731 5.97894 6.90723 6.69532V17.2969C6.90723 18.0149 7.48906 18.5967 8.20703 18.5967H10.9766C11.3629 18.5969 11.6757 18.9105 11.6758 19.2969C11.6758 19.6833 11.363 19.9969 10.9766 19.9971H8.20703C6.71586 19.9971 5.50684 18.7881 5.50684 17.2969V6.69532C5.50692 5.20728 6.71117 3.99944 8.19922 3.99513L13.4727 3.98048ZM14.0957 7.70997C14.0958 7.89078 14.1677 8.0647 14.2969 8.19337C14.4263 8.32225 14.6029 8.39552 14.7871 8.39552H16.9375C16.8796 8.28994 16.8079 8.19148 16.7217 8.1045L14.4033 5.76564C14.3118 5.67328 14.2081 5.59574 14.0957 5.53517V7.70997Z" fill="#15C674"/>
<path fill-rule="evenodd" clip-rule="evenodd" d="M15.6934 12.9111C16.0609 12.1821 17.0935 12.1814 17.4619 12.9102L18.5674 15.0977L19.6328 14.5479L19.7803 14.4844C20.5151 14.2292 21.1692 14.9102 21.0674 15.5859C21.0582 15.6466 21.0448 15.7013 21.04 15.7207C21.0329 15.7499 21.0345 15.7443 21.0361 15.7334L20.542 18.9746C20.5305 19.0501 20.4979 19.2717 20.3486 19.4766C20.1459 19.7546 19.8187 19.9325 19.4561 19.9326H13.7422C13.3735 19.9326 13.0418 19.7487 12.8398 19.4629C12.7011 19.2664 12.6688 19.0569 12.6572 18.9854L12.1299 15.7354C12.1316 15.7456 12.1328 15.751 12.126 15.7236C12.1214 15.7053 12.1079 15.6531 12.0986 15.5957C11.9892 14.9155 12.6468 14.2278 13.3848 14.4844L13.5332 14.5479L14.5908 15.0967L15.6934 12.9111ZM15.6562 16.0957C15.4122 16.5796 14.8163 16.7909 14.3174 16.5322L13.6182 16.169L14.002 18.5322H19.1924L19.5537 16.1641L18.8408 16.5332C18.3424 16.7905 17.749 16.5795 17.5049 16.0967L16.5781 14.2647L15.6562 16.0957Z" fill="#15C674"/>
<path d="M9.68555 14.2744C10.072 14.2746 10.3848 14.5881 10.3848 14.9746C10.3848 15.3611 10.072 15.6746 9.68555 15.6748H9C8.6134 15.6748 8.2998 15.3612 8.2998 14.9746C8.29982 14.588 8.61341 14.2744 9 14.2744H9.68555Z" fill="#15C674"/>
<path d="M11.1016 11.2744C11.4882 11.2744 11.8017 11.588 11.8018 11.9746C11.8018 12.3612 11.4882 12.6748 11.1016 12.6748H9C8.6134 12.6748 8.2998 12.3612 8.2998 11.9746C8.29982 11.588 8.61341 11.2744 9 11.2744H11.1016Z" fill="#15C674"/>
</svg>
