<svg xmlns="http://www.w3.org/2000/svg" width="24" height="24" fill="none"><path fill="#333" d="M17.308 4.907a2.8 2.8 0 0 1 2.8 2.8v8.584c0 1.546-1.254 2.8-2.8 2.8H6.69a2.8 2.8 0 0 1-2.8-2.8V7.707a2.8 2.8 0 0 1 2.8-2.8zM6.69 6.307a1.4 1.4 0 0 0-1.399 1.4v8.584a1.4 1.4 0 0 0 1.4 1.4h10.616a1.4 1.4 0 0 0 1.4-1.4V7.707a1.4 1.4 0 0 0-1.4-1.4zm5.753 8.103a.868.868 0 0 1 0 1.738h-4.88a.869.869 0 0 1 0-1.738zm3.308-6.398a1.7 1.7 0 0 1 1.7 1.7v.434a1.7 1.7 0 0 1-1.7 1.7H8.247a1.7 1.7 0 0 1-1.7-1.7v-.434c0-.939.761-1.7 1.7-1.7zm-7.505 1.4a.3.3 0 0 0-.3.3v.434a.3.3 0 0 0 .3.3h7.505a.3.3 0 0 0 .3-.3v-.434a.3.3 0 0 0-.3-.3z"/></svg>