<svg width="24" height="24" viewBox="0 0 24 24" fill="none" xmlns="http://www.w3.org/2000/svg">
<path d="M11.1182 5.04985C11.5045 5.05003 11.8172 5.36368 11.8174 5.75004C11.8174 6.13653 11.5046 6.45005 11.1182 6.45024H8.33496V17.5498H17.0996C18.0384 17.5498 18.7996 16.7894 18.7998 15.8506V12C18.8 11.6136 19.1135 11.2998 19.5 11.2998C19.8865 11.2998 20.2 11.6136 20.2002 12V15.8506C20.2 17.5626 18.8116 18.9502 17.0996 18.9502H6.90039C5.18841 18.9502 3.79997 17.5626 3.7998 15.8506V8.15043C3.7998 6.43835 5.18831 5.04985 6.90039 5.04985H11.1182ZM10.9932 14.4102C11.3797 14.4102 11.6932 14.7239 11.6934 15.1104C11.6934 15.497 11.3798 15.8106 10.9932 15.8106H10.6826C10.296 15.8106 9.98242 15.497 9.98242 15.1104C9.98257 14.7239 10.2961 14.4102 10.6826 14.4102H10.9932ZM15.7266 14.4102C16.1131 14.4102 16.4266 14.7239 16.4268 15.1104C16.4268 15.497 16.1132 15.8106 15.7266 15.8106H13.5449C13.1583 15.8106 12.8447 15.497 12.8447 15.1104C12.8449 14.7239 13.1584 14.4102 13.5449 14.4102H15.7266ZM10.9932 11.2998C11.3797 11.2998 11.6932 11.6136 11.6934 12C11.6934 12.3866 11.3798 12.7002 10.9932 12.7002H10.6826C10.296 12.7002 9.98242 12.3866 9.98242 12C9.98257 11.6136 10.2961 11.2998 10.6826 11.2998H10.9932ZM15.7266 11.2998C16.1131 11.2998 16.4266 11.6136 16.4268 12C16.4268 12.3866 16.1132 12.7002 15.7266 12.7002H13.5449C13.1583 12.7002 12.8447 12.3866 12.8447 12C12.8449 11.6136 13.1584 11.2998 13.5449 11.2998H15.7266ZM16.0264 3.60258C16.3929 2.95149 17.3552 2.95148 17.7217 3.60258L17.79 3.75199L18.2383 4.96293C18.2889 5.09957 18.3966 5.20715 18.5332 5.25785L19.7441 5.70609C20.5946 6.02094 20.5947 7.22436 19.7441 7.5391L18.5332 7.98637C18.3965 8.03706 18.2889 8.1455 18.2383 8.28227L17.79 9.49223C17.4753 10.3428 16.2728 10.3428 15.958 9.49223L15.5098 8.28227C15.4592 8.1455 15.3516 8.03706 15.2148 7.98637L14.0039 7.5391C13.1534 7.22436 13.1535 6.02094 14.0039 5.70609L15.2148 5.25785C15.3514 5.20715 15.4592 5.09957 15.5098 4.96293L15.958 3.75199L16.0264 3.60258ZM16.8232 5.44828C16.6308 5.96835 16.2203 6.37889 15.7002 6.57133L15.5615 6.62211L15.7002 6.67387C16.2203 6.86631 16.6308 7.27589 16.8232 7.79594L16.874 7.93266L16.9248 7.79594C17.1172 7.27588 17.5278 6.86631 18.0479 6.67387L18.1855 6.62211L18.0479 6.57133C17.5278 6.37889 17.1172 5.96835 16.9248 5.44828L16.874 5.31059L16.8232 5.44828ZM5.2002 15.8506C5.20036 16.7894 5.96161 17.5498 6.90039 17.5498H6.93457V6.45024H6.90039C5.96151 6.45024 5.2002 7.21155 5.2002 8.15043V15.8506Z" fill="#15C674"/>
</svg>
