<svg xmlns="http://www.w3.org/2000/svg" width="16" height="16" fill="none" viewBox="0 0 16 16"><circle cx="8" cy="8" r="6" fill="#a8adb4"/><path fill="#fff" d="M7.13 5.898c-.19.172-.29.392-.32.583a.263.263 0 0 1-.519-.086c.05-.294.2-.626.488-.886.292-.264.71-.439 1.265-.439.378 0 .854.099 1.244.378.402.288.692.756.692 1.439 0 .73-.539 1.189-.958 1.546l-.028.024c-.22.187-.413.352-.556.532-.14.177-.218.351-.218.553a.262.262 0 1 1-.525 0c0-.355.142-.641.332-.88.175-.22.403-.415.61-.59l.03-.026c.46-.392.788-.701.788-1.159 0-.513-.208-.822-.473-1.012-.278-.2-.638-.28-.938-.28-.439 0-.727.136-.913.303M7.625 10.625a.375.375 0 1 1 .75 0 .375.375 0 0 1-.75 0"/></svg>