<svg width="19" height="17" viewBox="0 0 19 17" fill="none" xmlns="http://www.w3.org/2000/svg">
<path d="M15.0438 12.3679C13.7374 12.3679 12.6747 13.4069 12.6747 14.6839C12.6747 15.961 13.7375 17 15.0438 17C16.3501 17 17.4128 15.961 17.4128 14.6839C17.4128 13.4069 16.3501 12.3679 15.0438 12.3679ZM15.0438 15.6104C14.5211 15.6104 14.0961 15.1949 14.0961 14.6839C14.0961 14.173 14.5211 13.7575 15.0438 13.7575C15.5664 13.7575 15.9914 14.173 15.9914 14.6839C15.9914 15.1949 15.5664 15.6104 15.0438 15.6104ZM18.849 3.41642C18.7826 3.33334 18.6976 3.26616 18.6007 3.21997C18.5037 3.17377 18.3973 3.14979 18.2894 3.14984H4.3871L3.74744 0.533378C3.71027 0.381467 3.62184 0.246224 3.49642 0.149458C3.371 0.0526913 3.2159 4.20522e-05 3.05613 3.17316e-09H0.710724C0.318178 -3.62761e-05 0 0.311022 0 0.694785C0 1.07855 0.318178 1.38961 0.710724 1.38961H2.49514L4.80499 10.8383C4.84212 10.9902 4.93054 11.1255 5.05597 11.2223C5.1814 11.319 5.33652 11.3717 5.49631 11.3717H16.56C16.8867 11.3717 17.1714 11.154 17.2499 10.8441L18.9793 4.01162C19.0051 3.90924 19.0068 3.80246 18.9842 3.69935C18.9616 3.59624 18.9154 3.4995 18.849 3.41642ZM16.0039 9.98206H6.05729L4.7268 4.53948H17.3813L16.0039 9.98206ZM6.44394 12.3679C5.13761 12.3679 4.07486 13.4069 4.07486 14.6839C4.07486 15.961 5.13764 17 6.44394 17C7.75023 17 8.81302 15.961 8.81302 14.6839C8.81302 13.4069 7.75023 12.3679 6.44394 12.3679ZM6.44394 15.6104C5.92132 15.6104 5.49631 15.1949 5.49631 14.6839C5.49631 14.173 5.92132 13.7575 6.44394 13.7575C6.96655 13.7575 7.39157 14.173 7.39157 14.6839C7.39157 15.1949 6.96655 15.6104 6.44394 15.6104Z" fill="#B7BBD3"/>
</svg>
