<svg width="16" height="15" viewBox="0 0 16 15" fill="none" xmlns="http://www.w3.org/2000/svg">
<path d="M13.9386 4.98898C13.9386 4.53697 13.8786 4.13797 13.7586 3.79199C13.6386 3.44601 13.4852 3.17118 13.2982 2.96749C13.1113 2.76381 12.8839 2.5978 12.616 2.46945C12.3482 2.3411 12.0859 2.2546 11.8292 2.20996C11.5725 2.16532 11.2991 2.143 11.0089 2.143C10.7187 2.143 10.4062 2.21415 10.0714 2.35645C9.73657 2.49874 9.42826 2.67732 9.14645 2.89216C8.86464 3.107 8.62329 3.3079 8.4224 3.49484C8.22151 3.68178 8.05409 3.85338 7.92017 4.00963C7.81972 4.13239 7.683 4.19378 7.51001 4.19378C7.33702 4.19378 7.2003 4.13239 7.09985 4.00963C6.96592 3.85338 6.79851 3.68178 6.59762 3.49484C6.39673 3.3079 6.15538 3.107 5.87357 2.89216C5.59176 2.67732 5.28345 2.49874 4.94863 2.35645C4.6138 2.21415 4.3013 2.143 4.01113 2.143C3.72095 2.143 3.44751 2.16532 3.19081 2.20996C2.93412 2.2546 2.67184 2.3411 2.40398 2.46945C2.13613 2.5978 1.90873 2.76381 1.72178 2.96749C1.53484 3.17118 1.38138 3.44601 1.2614 3.79199C1.14143 4.13797 1.08144 4.53697 1.08144 4.98898C1.08144 5.92648 1.6032 6.91699 2.64673 7.96052L7.51001 12.648L12.3649 7.96889C13.414 6.91978 13.9386 5.92648 13.9386 4.98898ZM15.01 4.98898C15.01 6.22224 14.3711 7.47782 13.0932 8.75572L7.87831 13.778C7.77787 13.8785 7.6551 13.9287 7.51001 13.9287C7.36492 13.9287 7.24215 13.8785 7.14171 13.778L1.91849 8.73898C1.86269 8.69434 1.78596 8.62179 1.6883 8.52135C1.59065 8.4209 1.43579 8.23814 1.22374 7.97307C1.01168 7.70801 0.821952 7.43597 0.654541 7.15695C0.48713 6.87793 0.337856 6.54032 0.206717 6.14411C0.075579 5.74791 0.0100098 5.36286 0.0100098 4.98898C0.0100098 3.7613 0.364362 2.80148 1.07307 2.10952C1.78177 1.41755 2.76113 1.07157 4.01113 1.07157C4.35711 1.07157 4.71007 1.13156 5.07 1.25154C5.42993 1.37151 5.76475 1.53334 6.07446 1.73703C6.38417 1.94071 6.65063 2.13184 6.87385 2.31041C7.09706 2.48898 7.30912 2.67871 7.51001 2.8796C7.7109 2.67871 7.92296 2.48898 8.14617 2.31041C8.36938 2.13184 8.63585 1.94071 8.94556 1.73703C9.25527 1.53334 9.59009 1.37151 9.95002 1.25154C10.31 1.13156 10.6629 1.07157 11.0089 1.07157C12.2589 1.07157 13.2382 1.41755 13.947 2.10952C14.6557 2.80148 15.01 3.7613 15.01 4.98898Z" fill="#B7BBD3"/>
</svg>
