<svg width="11" height="13" viewBox="0 0 11 13" fill="none" xmlns="http://www.w3.org/2000/svg">
<path d="M5.49707 5.92822C6.27892 5.92822 6.93092 5.66398 7.48047 5.12842C8.02932 4.59341 8.29486 3.96445 8.29492 3.21436C8.29492 2.34688 8.1291 1.932 7.96289 1.77002C7.80202 1.61324 7.68105 1.4959 7.60059 1.41748C7.56038 1.3783 7.53087 1.34823 7.51074 1.32861C7.50068 1.3188 7.49234 1.31203 7.4873 1.30713C7.48493 1.30481 7.48367 1.30248 7.48242 1.30127L7.48047 1.30029V1.29932C6.93092 0.763753 6.27892 0.499512 5.49707 0.499512C4.71522 0.499512 4.06322 0.763752 3.51367 1.29932C2.96461 1.83444 2.69922 2.46404 2.69922 3.21436C2.69928 3.96445 2.96482 4.59341 3.51367 5.12842C4.06322 5.66398 4.71522 5.92822 5.49707 5.92822ZM1.8291 12.3569H9.16504C9.50033 12.3568 9.7958 12.2213 10.0713 11.8862C10.3494 11.5479 10.4941 11.1411 10.4941 10.6392C10.4941 10.182 10.471 9.7531 10.4248 9.35303C10.3798 8.96384 10.296 8.56948 10.1729 8.17041C10.0524 7.78006 9.90356 7.46069 9.73242 7.20459C9.57435 6.9681 9.36382 6.7711 9.0918 6.61475C8.88603 6.49649 8.64801 6.42342 8.37012 6.40088C7.55859 7.10746 6.5936 7.46435 5.49707 7.46436C4.40029 7.46436 3.43469 7.10778 2.62305 6.40088C2.34557 6.42351 2.10787 6.49662 1.90234 6.61475C1.63032 6.7711 1.41979 6.96809 1.26172 7.20459C1.09058 7.46069 0.941714 7.78006 0.821289 8.17041C0.698179 8.56948 0.614297 8.96383 0.569336 9.35303C0.523136 9.7531 0.5 10.182 0.5 10.6392C0.50008 11.1411 0.64478 11.5479 0.922852 11.8862C1.19834 12.2213 1.49381 12.3568 1.8291 12.3569Z" stroke="#B7BBD3"/>
</svg>
